<svg fill="none" height="17" viewBox="0 0 14 17" width="14" xmlns="http://www.w3.org/2000/svg"><g clip-rule="evenodd" fill="#1f1d1d" fill-rule="evenodd"><path d="m6.66667 0c-2.07107 0-3.75 1.67893-3.75 3.75s1.67893 3.75 3.75 3.75c2.07106 0 3.75003-1.67893 3.75003-3.75s-1.67897-3.75-3.75003-3.75zm-2.08334 3.75c0-1.15059.93274-2.08333 2.08334-2.08333 1.15059 0 2.08333.93274 2.08333 2.08333s-.93274 2.08333-2.08333 2.08333c-1.1506 0-2.08334-.93274-2.08334-2.08333z"/><path d="m6.66667 8.75c-3.6819 0-6.66667 2.9848-6.66667 6.6667v1.25h13.3333v-1.25c0-3.6819-2.9847-6.6667-6.66663-6.6667zm0 1.6667c2.62111 0 4.77113 2.0168 4.98293 4.5833h-9.96582c.21173-2.5665 2.36178-4.5833 4.98289-4.5833z"/></g></svg>