<svg fill="none" height="24" viewBox="0 0 24 24" width="24" xmlns="http://www.w3.org/2000/svg"><path d="m1.25 12c0-5.93421 4.81579-10.75 10.75-10.75.4142 0 .75.33579.75.75s-.3358.75-.75.75c-5.10579 0-9.25 4.14421-9.25 9.25 0 5.1058 4.14421 9.25 9.25 9.25 5.1058 0 9.25-4.1442 9.25-9.25 0-.4142.3358-.75.75-.75s.75.3358.75.75c0 5.9342-4.8158 10.75-10.75 10.75-5.93421 0-10.75-4.8158-10.75-10.75zm20-5.16992v-3.01953l-7.7197 7.71975c-.2929.2929-.7677.2929-1.0606 0s-.2929-.7677 0-1.0606l7.7198-7.7197h-3.0196c-.4142-.00004-.75-.33581-.75-.75s.3358-.74996.75-.75h4.8301c.4142 0 .75.33579.75.75v4.83008c0 .41418-.3358.75-.75.75s-.75-.33582-.75-.75z" fill="#000"/></svg>