<svg fill="none" height="160" viewBox="0 0 160 160" width="160" xmlns="http://www.w3.org/2000/svg"><g fill="#fff"><path d="m22.5805 60.8212h2.3606v-35.4071h108.8529v35.4071h2.361v-37.8212h-113.5745z"/><path d="m99.9578 68.3586c-4.6164.7779-8.4459 4.6941-9.259 9.4687-1.1017 6.5449 3.0426 12.5266 9.3902 13.5727 3.043.5096 6.767-.1878 8.866-1.6362.97-.6974 2.806-2.4142 2.806-2.6556 0-.0804-.367-.4291-.813-.7778l-.787-.5902-1.023.9389c-1.915 1.7703-3.488 2.3873-6.295 2.5214-3.095.1341-4.8262-.456-6.8196-2.28-2.3345-2.1459-3.3574-4.8283-3.0427-7.9398.341-3.3261 2.1771-6.0353 5.0886-7.4838 1.6-.8047 1.9407-.8851 4.2487-.8851 2.125 0 2.702.1073 3.987.7242.814.3755 2.02 1.2071 2.676 1.824l1.18 1.0998.787-.5901c.446-.3488.813-.7243.813-.8316 0-.5365-2.518-2.6823-4.013-3.4066-1.521-.7778-4.223-1.3948-5.692-1.3411-.367.0268-1.311.1341-2.0982.2682z"/><path d="m153.204 68.8682c-2.308 1.7435-8.525 4.1845-13.508 5.2306-7.869 1.7167-9.784 2.4946-11.909 4.8551-.682.751-1.521 2.0654-1.888 2.8969l-.63 1.5021h-1.836c-2.282 0-3.567-.3487-5.167-1.3948-1.049-.6706-1.364-.7511-1.967-.5365-.708.2414-.708.2683.997 1.073 2.229 1.0193 4.983 1.663 7.265 1.663 1.285 0 1.915.1073 2.151.4024 1.18 1.4485 6.584 2.0922 9.443 1.0997 5.954-2.0654 11.2-6.8131 16.551-14.9675 1.573-2.3873 1.678-2.736.498-1.824zm-1.443 1.7972c-3.357 5.3915-8.734 10.8903-12.564 12.8753-4.144 2.1459-8.236 2.4946-11.646.9925l-.97-.4292 1.705-.3755c.944-.1878 2.728-.7243 3.987-1.1803 2.465-.8583 7.108-2.9774 6.951-3.1383-.053-.0537-1.076.3218-2.23.8315-3.541 1.5558-10.308 3.4602-10.728 3.0311-.262-.2951.971-2.6288 2.02-3.7822 2.072-2.3068 3.777-3.0042 10.885-4.4258 5.43-1.0998 9.443-2.5751 11.935-4.4259 1.154-.8584 1.206-.8584.655.0268z"/><path d="m4.08852 68.9487c-.07868.1609-.10491 5.2038-.07868 11.1854l.07868 10.8636 3.93445-.0269c3.54103 0 4.06563-.0804 5.32463-.6437 3.3049-1.4753 4.6426-5.2575 3.0688-8.5031-1.2327-2.5214-3.095-3.4602-7.52785-3.7553l-2.57051-.1609v-6.8937h8.65576v-2.4141h-5.37705c-4.0656 0-5.42954.0805-5.50823.3487zm8.52468 12.1511c2.6491 1.5826 2.8065 5.2842.2885 6.8668-.7869.5096-1.3902.6169-3.75086.7242l-2.8328.0805v-8.4226l2.70165.1073c2.09841.0805 2.88531.2146 3.59351.6438z"/><path d="m22.5805 91.1586 1.1278-.0805 1.1017-.0805v-22.2635l-1.1017-.0805-1.1278-.0804z"/><path d="m30.187 68.7878c0 .1341 1.4164 2.575 3.1475 5.4183 1.7312 2.8433 3.1476 5.2306 3.1476 5.3111 0 .0536-1.5213 2.6287-3.4099 5.7134-1.8623 3.0579-3.4098 5.6597-3.4098 5.7402s.5508.161 1.259.161h1.2328l2.7541-4.5869c1.4951-2.5214 2.8066-4.6136 2.8853-4.6673.0787-.0536.9705 1.3144 1.9672 3.0311 3.7508 6.384 3.6197 6.2231 4.9836 6.2231.6558 0 1.1804-.0805 1.1804-.2146 0-.1073-1.5214-2.7092-3.4099-5.8207-3.0951-5.0965-3.3574-5.6598-3.0426-6.1695 1.8098-2.8432 5.9279-9.8174 5.9279-10.032 0-.1609-.4984-.295-1.1541-.295h-1.1279l-2.5705 4.2918c-1.4164 2.3604-2.6492 4.2917-2.7279 4.2917-.0787-.0268-1.2853-1.9313-2.6492-4.2381l-2.4918-4.2113-1.2328-.0805c-.7082-.0536-1.259.0269-1.259.1342z"/><path d="m51.1708 91.1318h12.3279v-2.4142h-10.2295v-8.5835h10.2295v-2.28h-10.0984l-.1574-6.84h10.5443l-.0786-1.1534-.0787-1.1266-6.2165-.0805-6.2426-.0536z"/><path d="m75.6168 71.0678c-4.223 9.8978-8.446 19.8494-8.446 19.9567 0 .0804.5509.1073 1.2328.0536l1.2328-.0804 3.541-8.3958c1.9673-4.5868 3.6197-8.369 3.6984-8.369s1.7312 3.809 3.6722 8.4495l3.5147 8.4494h1.1541c1.0754 0 1.1541-.0537.9967-.617-.2885-1.1534-9.0492-21.7807-9.2852-21.8612-.1312-.0268-.7082 1.0462-1.3115 2.4142z"/><path d="m22.5805 137h113.5745v-37.8212h-2.361v35.4072h-108.8529v-35.4072h-2.3606z"/></g></svg>