<svg fill="none" height="16" viewBox="0 0 100 16" width="100" xmlns="http://www.w3.org/2000/svg"><g fill="#293d38"><path d="m63.9719.176984c-3.0776.507106-5.6306 3.060126-6.1727 6.172706-.7344 4.26671 2.0284 8.16611 6.2601 8.84811 2.0285.3323 4.5115-.1224 5.9105-1.0667.647-.4546 1.871-1.5737 1.871-1.7311 0-.0525-.2448-.2798-.5421-.5071l-.5246-.3847-.6819.612c-1.2765 1.1541-2.3257 1.5563-4.1968 1.6437-2.0634.0875-3.2175-.2972-4.5464-1.4863-1.5563-1.3989-2.2383-3.14757-2.0285-5.17599.2274-2.16832 1.4514-3.93445 3.3924-4.87871 1.0667-.5246 1.294-.57706 2.8328-.57706 1.4164 0 1.8011.06995 2.6579.47214.5421.24481 1.3465.78689 1.7836 1.18907l.7869.71695.5246-.3847c.2973-.22733.5421-.47214.5421-.54208 0-.34973-1.6787-1.74865-2.6754-2.220779-1.0142-.507106-2.8153-.9092937-3.7946-.87432087-.2448.01748647-.8743.08743207-1.3989.17486387z"/><path d="m99.4693.509185c-1.5388 1.136615-5.6831 2.727885-9.0055 3.409855-5.2459 1.11913-6.5224 1.62623-7.9388 3.16504-.4547.48962-1.0142 1.34645-1.2591 1.88853l-.4196.97924h-1.2241c-1.5213 0-2.3781-.22732-3.4448-.90929-.6995-.43716-.9093-.48962-1.3115-.34973-.4721.15738-.4721.17486.6645.69946 1.4863.66451 3.3224 1.08411 4.8437 1.08411.8569 0 1.2766.07 1.4339.2623.7869.9443 4.3891 1.364 6.2951.717 3.9695-1.3465 7.4667-4.44157 11.034-9.75744 1.0489-1.556289 1.1189-1.7836129.3322-1.189075zm-.9617 1.171595c-2.2383 3.51477-5.823 7.09948-8.376 8.39352-2.7629 1.3989-5.4908 1.6262-7.764.647l-.647-.2798 1.1366-.2448c.6295-.1224 1.8186-.47217 2.6579-.76944 1.6438-.55957 4.7389-1.94099 4.6339-2.04591-.0349-.03497-.7169.20984-1.4863.54208-2.3607 1.01421-6.8722 2.25577-7.1519 1.97596-.1749-.19235.647-1.71367 1.3464-2.46558 1.3814-1.50383 2.5181-1.95848 7.2569-2.88526 3.6197-.71694 6.2951-1.6787 7.9563-2.88526.7694-.55957.8044-.55957.4372.01749z"/><path d="m.0590167.561636c-.05245929.104918-.0699457 3.392364-.05245929 7.291834l.05245929 7.08203 2.6229633-.0175c2.36067 0 2.71039-.0525 3.54974-.4197 2.20329-.9617 3.0951-3.4273 2.04591-5.54318-.82186-1.64373-2.06339-2.25575-5.0186-2.4481l-1.71367-.10492v-4.49401h5.77052v-1.573778h-3.58472c-2.71039 0-3.619684.05246-3.6721433.227324zm5.6830833 7.921344c1.76613 1.0317 1.87105 3.44482.19235 4.47652-.52459.3322-.92678.4022-2.50055.4721l-1.88854.0525v-5.49074l1.8011.06995c1.39892.05246 1.92351.13989 2.39564.41967z"/><path d="m12.387 15.0403.7519-.0524.7344-.0525v-14.513716l-.7344-.052459-.7519-.052459z"/><path d="m17.4579.456772c0 .087432.9442 1.678698 2.0983 3.532258s2.0984 3.40985 2.0984 3.46231c0 .03497-1.0142 1.71367-2.2732 3.72456-1.2416 1.9935-2.2733 3.6897-2.2733 3.7421 0 .0525.3673.105.8394.105h.8219l1.836-2.9902c.9968-1.6437 1.8711-3.00768 1.9235-3.04266.0525-.03497.647.85684 1.3115 1.97596 2.5006 4.1618 2.4131 4.0569 3.3224 4.0569.4372 0 .7869-.0525.7869-.1399 0-.07-1.0142-1.7662-2.2732-3.7946-2.0634-3.32241-2.2383-3.68962-2.0284-4.02186 1.2065-1.85356 3.9519-6.400031 3.9519-6.539922 0-.104919-.3322-.192351-.7694-.192351h-.7519l-1.7137 2.797823c-.9443 1.53881-1.7661 2.79783-1.8186 2.79783-.0524-.01749-.8568-1.25902-1.7661-2.76285l-1.6612-2.745371-.8219-.052459c-.4721-.034973-.8393.017486-.8393.087432z"/><path d="m31.4469 15.023h8.2186v-1.5738h-6.8197v-5.59568h6.8197v-1.48635h-6.7322l-.1049-4.45903h7.0295l-.0525-.75192-.0524-.734429-4.1443-.052459-4.1618-.034973z"/><path d="m47.7446 1.94311c-2.8153 6.45249-5.6307 12.93999-5.6307 13.00989 0 .0525.3673.07.8219.035l.8219-.0525 2.3606-5.47323c1.3115-2.99018 2.4132-5.45576 2.4656-5.45576.0525 0 1.1541 2.48307 2.4481 5.50822l2.3432 5.50827h.7694c.7169 0 .7694-.035.6645-.4022-.1924-.752-6.0328-14.199009-6.1902-14.251468-.0874-.017487-.4721.681968-.8743 1.573778z"/></g></svg>