<svg fill="none" height="24" viewBox="0 0 141 24" width="141" xmlns="http://www.w3.org/2000/svg"><g fill="#fff"><path d="m98.4857 21.7285c0-.0751.084-.1205.1483-.0817.6815.4104 1.554.661 2.398.661 1.48 0 2.34-.8353 2.34-2.2006v-.48c0-.011-.006-.0211-.016-.0261-.01-.0049-.022-.004-.03.0024-.555.3951-1.266.6161-2.039.6161-2.0374 0-3.6926-1.5421-3.6926-3.9033 0-2.3453 1.6712-4.1444 4.1226-4.1444h2.196 1.291c.052 0 .094.0422.094.0942v7.8893c0 2.4255-1.624 3.823-4.123 3.823-1.009 0-1.9585-.2449-2.6398-.6002-.0307-.016-.0495-.0478-.0495-.0824zm1.0504-5.4765c0 1.3493.8439 2.3452 2.2119 2.3452.603 0 1.176-.2119 1.587-.5182.023-.0174.037-.0449.037-.074v-4.0684c0-.0519-.042-.0941-.094-.0941-.396 0-.919 0-1.434 0-1.48 0-2.3079 1.0763-2.3079 2.4095z"/><path d="m113.951 19.6851c0 .0327-.017.0631-.045.0797-.733.4336-1.838.6958-2.836.6958-2.547 0-4.345-1.6064-4.345-4.1283 0-2.554 1.814-4.1604 3.979-4.1604 1.958 0 3.677 1.3012 3.677 3.9034 0 .2247-.013.5109-.037.7081-.006.0457-.045.079-.091.079h-5.475c-.058 0-.103.0526-.091.1096.261 1.2441 1.275 1.8662 2.59 1.8662.896 0 1.765-.2973 2.526-.7722.064-.0398.148.0054.148.0805zm-5.247-4.2821c-.012.0572.032.1101.091.1101h3.683c.056 0 .099-.0483.092-.1035-.165-1.1927-1.031-1.6635-1.882-1.6635-.894 0-1.743.5572-1.984 1.6569z"/><path d="m115.947 20.2839c-.052 0-.094-.0422-.094-.0941v-7.747c0-.052.042-.0942.094-.0942h1.722c.052 0 .094.0422.094.0942v.676c0 .0104.006.0199.015.0246.01.0051.022.0035.031-.0039.636-.556 1.521-.9676 2.564-.9676.86 0 1.544.2731 2.053.8193.494.5461.685 1.2529.685 2.3131v4.8855c0 .0519-.042.0941-.094.0941h-1.738c-.052 0-.094-.0422-.094-.0941v-4.6446c0-.5622-.08-.9798-.35-1.2529-.271-.2731-.653-.4016-1.083-.4016-.718 0-1.452.356-1.946.8401-.017.0174-.027.0412-.027.0661v5.3929c0 .0519-.042.0941-.094.0941z"/><path d="m131.239 19.7993c0 .0318-.016.0614-.043.0783-.634.3987-1.52.583-2.36.583-2.563 0-4.329-1.7349-4.329-4.1283 0-2.4577 1.878-4.1604 4.376-4.1604.824 0 1.632.1837 2.248.5511.028.0167.044.047.044.0796v1.5834c0 .0759-.085.121-.149.0805-.577-.3637-1.268-.6079-1.999-.6079-1.544 0-2.579 1.028-2.579 2.4577 0 1.4456 1.051 2.4416 2.595 2.4416.751 0 1.502-.2381 2.039-.6062.065-.0447.157.0004.157.0794z"/><path d="m135.623 23.7626c-.015.0336-.049.0552-.086.0552h-1.796c-.069 0-.114-.0719-.085-.1343l2.003-4.2435c.012-.0251.012-.0542 0-.0794l-3.151-6.8786c-.029-.0624.017-.1334.085-.1334h1.862c.037 0 .07.022.086.056l1.073 2.4178c.364.83.712 1.6601 1.028 2.4428.004.009.013.0148.022.0148.01 0 .019-.0057.022-.0145.349-.8303.697-1.6447 1.061-2.4592l1.073-2.4019c.015-.0339.049-.0558.086-.0558h1.75c.069 0 .114.0707.086.133z"/><path clip-rule="evenodd" d="m95.6967 20.4866h-3.8986c-1.6001 0-2.8083-.8734-2.8083-2.4388 0-1.7303 1.3225-2.5212 3.3308-2.5212.4898 0 1.0612.0494 1.5837.1318v-.4943c0-1.0052-.6694-1.4501-1.9429-1.4501-.8205 0-1.5429.2102-2.0717.4701-.1044.0512-.2305-.0231-.2305-.1403v-1.33c0-.0541.0282-.1043.0753-.1303.5918-.326 1.5078-.5833 2.6187-.5833 2.1878 0 3.494.9722 3.494 2.9167v1.0719l.8389.1426c.0726.0123.1258.0758.1258.1501v1.0069c0 .0944-.0844.1661-.1767.15l-.788-.138v.7968 2.2371c0 .0841-.0672.1523-.1505.1523zm-1.9432-1.5325h-1.4819c-.7511 0-1.3389-.3131-1.3389-1.0382 0-.8074.7674-1.071 1.6817-1.071.3919 0 .9144.0494 1.2899.1153v1.8416c0 .0841-.0674.1523-.1508.1523z" fill-rule="evenodd"/><path d="m61.0102 20.5199c-.0842 0-.1525-.0683-.1525-.1525v-12.30883c0-.08425.0683-.15255.1525-.15255h1.6927c.0842 0 .1525.0683.1525.15255v12.30883c0 .0842-.0683.1525-.1525.1525z"/><path d="m46.944 20.5309c-.0618 0-.1175-.0372-.141-.0943l-3.2421-8.2142c-.0415-.1004.0323-.2108.141-.2108h1.798c.0626 0 .1189.0383.1419.0965l1.2001 3.4037c.3446.8862.6566 1.7397.9684 2.593.0035.0094.0124.0156.0223.0156s.0188-.0061.0223-.0153c.3282-.8701.6567-1.7565 1.0178-2.6428l1.1999-3.3549c.0232-.0579.0792-.0958.1415-.0958h1.6835c.1086 0 .1824.1101.1411.2105l-3.2262 8.2143c-.0235.0572-.0792.0945-.1411.0945z"/><path d="m39.1031 20.5309c-2.5261 0-4.4082-1.8656-4.4082-4.2596 0-2.4105 1.8821-4.2597 4.4082-4.2597s4.4083 1.8492 4.4083 4.2597c0 2.394-1.8822 4.2596-4.4083 4.2596zm0-1.7666c1.3704 0 2.4105-1.0896 2.4105-2.493s-1.0401-2.5096-2.4105-2.5096c-1.3868 0-2.4105 1.1062-2.4105 2.5096s1.0237 2.493 2.4105 2.493z"/><path clip-rule="evenodd" d="m25.9693 24c-.0843 0-.1526-.0683-.1526-.1525v-11.665c0-.0842.0683-.1525.1526-.1525h4.0741c2.1133 0 3.8634 1.651 3.8634 4.1606 0 2.5426-1.8161 4.3587-4.2266 4.3587-.7031 0-1.3091-.1619-1.8179-.4216-.0093-.0048-.0203-.0049-.0297-.0002-.0111.0056-.0181.0169-.0181.0293v3.6907c0 .0842-.0683.1525-.1525.1525zm3.4962-5.1347c-.5924 0-1.1554-.1767-1.5778-.4188-.0459-.0264-.0732-.0758-.0732-.1288v-4.4181c0-.0842.0683-.1525.1526-.1525h1.5975c1.4529 0 2.328 1.1227 2.328 2.5426 0 1.4694-.8916 2.5756-2.4271 2.5756z" fill-rule="evenodd"/><path d="m8.29557 20.5199c-.08425 0-.15255-.0683-.15255-.1525v-12.30883c0-.08425.0683-.15255.15255-.15255h1.69266c.08427 0 .15257.0683.15257.15255v5.07993c0 .0109.0061.0209.0159.0258.0104.0052.0228.0037.0316-.0038.6594-.5553 1.5783-.9783 2.6437-.9783.8915 0 1.6015.2807 2.1298.842.5118.5614.7099 1.2878.7099 2.3775v4.9657c0 .0842-.0683.1525-.1525.1525h-1.6927c-.0842 0-.1525-.0683-.1525-.1525v-4.718c0-.5779-.0826-1.0072-.3632-1.2878-.2807-.2807-.677-.4128-1.1227-.4128-.7375 0-1.4905.3581-2.0022.8474-.0292.028-.0451.0669-.0451.1074v5.4638c0 .0842-.0683.1525-.15257.1525z"/><path d="m3.33509 20.5493c-1.01067 0-2.25515-.2026-3.157905-.6836-.048596-.0259-.0781229-.0769-.0781229-.1319v-1.4801c0-.1208.1344259-.1947.2395489-.1352.983629.5569 2.175569.7963 3.029499.7963.90807 0 1.48593-.2642 1.48593-.842 0-.4128-.24765-.6274-.94109-.7925-.69343-.1651-1.96473-.3467-2.74072-.71-.792492-.3632-1.17223-.9906-1.17223-1.9317 0-1.717 1.40338-2.6086 3.36811-2.6086.97294 0 2.11538.2157 2.9212.6025.05169.0248.08369.0775.08369.1348v1.4025c0 .1151-.12302.1892-.22684.1394-.9363-.4495-1.98179-.6612-2.74503-.6612-.84203 0-1.40338.2477-1.40338.809 0 .4293.3137.6274 1.02364.7925.70995.1486 1.89869.3137 2.65817.6604.77599.3633 1.17223.9741 1.17223 1.9813 0 1.8161-1.58499 2.6581-3.5167 2.6581z"/><path clip-rule="evenodd" d="m23.663 20.5328h-3.9424c-1.618 0-2.8398-.875-2.8398-2.4435 0-1.7336 1.3374-2.5261 3.3681-2.5261.4953 0 1.0732.0495 1.6015.1321v-.4953c0-1.0071-.6769-1.4529-1.9647-1.4529-.8297 0-1.5602.2107-2.0949.471-.1055.0513-.2331-.0232-.2331-.1405v-1.3326c0-.0542.0286-.1046.0762-.1306.5984-.3266 1.5246-.5844 2.6481-.5844 2.2123 0 3.5332.9741 3.5332 2.9223v1.074l.8482.1429c.0735.0123.1272.0759.1272.1504v1.0088c0 .0947-.0853.1665-.1786.1503l-.7968-.1382v.7983 2.2415c0 .0843-.068.1525-.1522.1525zm-1.965-1.5354h-1.4986c-.7595 0-1.3538-.3137-1.3538-1.0402 0-.809.7759-1.0732 1.7005-1.0732.3963 0 .9246.0496 1.3043.1156v1.8452c0 .0843-.0682.1526-.1524.1526z" fill-rule="evenodd"/><path clip-rule="evenodd" d="m59.002 20.5328h-3.9424c-1.618 0-2.8397-.875-2.8397-2.4435 0-1.7336 1.3373-2.5261 3.3681-2.5261.4953 0 1.0732.0495 1.6015.1321v-.4953c0-1.0071-.6769-1.4529-1.9647-1.4529-.8297 0-1.5602.2107-2.095.471-.1055.0513-.233-.0232-.233-.1405v-1.3326c0-.0542.0285-.1046.0761-.1306.5984-.3266 1.5247-.5844 2.6481-.5844 2.2124 0 3.5332.9741 3.5332 2.9223v1.074l.8483.1429c.0734.0123.1272.0759.1272.1504v1.0088c0 .0947-.0853.1665-.1786.1503l-.7969-.1382v.7983 2.2415c0 .0843-.0679.1525-.1522.1525zm-1.965-1.5354h-1.4986c-.7594 0-1.3538-.3137-1.3538-1.0402 0-.809.776-1.0732 1.7006-1.0732.3962 0 .9245.0496 1.3043.1156v1.8452c0 .0843-.0682.1526-.1525.1526z" fill-rule="evenodd"/></g><path d="m76.9949.0540775c-.0043-.020235.0028-.0357032.0158-.04583124.0066-.00515957.0132-.00750177.0186-.00808266.0043-.00047573.0109-.00021308.0206.00495359 1.1706.62432981 2.1206 1.36616281 2.86 2.18541281 1.1338 1.25606 2.0833 2.7661 2.3079 4.40505.1466 1.06931.074 2.29984-.114 3.53292-.6503 4.2648-3.9924 7.9762-8.2426 8.5595-.2574.0354-.7426.028-1.288-.0633-.5442-.091-1.1266-.2621-1.5861-.5399-.0031-.0019-.0054-.004-.0054-.004s-.0004-.0031.0002-.0069c.0023-.0136.014-.034.0397-.045.7294-.3107 1.1231-.7722 1.3036-1.3194.1761-.5334.1421-1.1274.0671-1.6931-.0495-.3739-.1537-.736-.2537-1.082l-.0034-.0117c-.1003-.3465-.1959-.6769-.2439-1.0132-.0801-.5619-.0069-1.2063.3108-1.8957.3484-.7558 1.0653-1.26255 1.8114-1.77815 1.8813-1.30005 2.8315-2.68757 3.2029-4.2215.3688-1.52333.1599-3.16592-.2215-4.9600725z" fill="#ff831a"/><path d="m82.6887 7.50285c.0484-.36407.0966-.757.1489-1.18476.0164-.13397.1905-.17567.2655-.06345 3.0199 4.52136 2.5912 10.57206-.9606 14.68876-4.1578 4.9435-12.0995 3.5837-14.3758-2.4615l-.1413-.3752c-.0399-.106.0835-.2018.1807-.1436 1.2867.7709 2.4396.9455 3.5418.7396.3799.1506.7838.2512 1.1597.3141.5705.0955 1.0983.1076 1.4076.0651 4.448-.6105 7.9085-4.4789 8.5816-8.8935.1382-.90612.2171-1.82288.1919-2.68555z" fill="#ff831a"/><path d="m76.1367 6.57196c-.2115-.78932-.5978-1.56802-1.2086-2.30933-.0697-.08452-.206-.06388-.253.03505-.6675 1.4047-2.3156 2.42005-3.951 3.42757-2.4576 1.51411-4.8866 3.01055-3.9157 5.78415.0279.0798.1205.1205.1972.0848l.4875-.2267.6056-.243c1.4799-.5939 3.072.0673 3.7772 1.3471-.0367-.1405-.0775-.2822-.1192-.4267l-.0068-.0234c-.0978-.3381-.2002-.6917-.2521-1.0558-.0914-.6404-.0054-1.3619.3433-2.1183.4016-.87132 1.2182-1.43563 1.9461-1.93863 1.0929-.7552 1.8471-1.5303 2.3495-2.33681z" fill="#ff831a"/></svg>