<svg fill="none" height="86" viewBox="0 0 113 86" width="113" xmlns="http://www.w3.org/2000/svg"><g fill="#fff"><path d="m13.9353 28.3659h1.7705v-26.55531h81.6398v26.55531h1.7705v-28.3659h-85.1808z"/><path d="m71.9684 34.0189c-3.4623.5835-6.3345 3.5206-6.9443 7.1016-.8263 4.9087 2.282 9.3949 7.0426 10.1795 2.282.3822 5.0755-.1408 6.6492-1.2272.7279-.523 2.105-1.8106 2.105-1.9916 0-.0604-.2755-.3219-.6099-.5834l-.5901-.4426-.7673.7041c-1.436 1.3278-2.6164 1.7905-4.7213 1.8911-2.3213.1005-3.6197-.342-5.1148-1.71-1.7508-1.6095-2.518-3.6212-2.2819-5.9549.2557-2.4946 1.6327-4.5264 3.8164-5.6128 1.2-.6035 1.4557-.6639 3.1869-.6639 1.5934 0 2.0262.0805 2.9901.5432.6099.2816 1.5148.9053 2.0066 1.368l.8853.8248.5901-.4426c.3344-.2615.6099-.5431.6099-.6236 0-.4024-1.8886-2.0118-3.0099-2.5549-1.141-.5835-3.1672-1.0462-4.2689-1.0059-.2754.0201-.9836.1006-1.5737.2011z"/><path d="m111.903 34.4012c-1.731 1.3076-6.394 3.1383-10.131 3.9229-5.9019 1.2875-7.338 1.8709-8.9314 3.6413-.5115.5633-1.141 1.5491-1.4164 2.1727l-.4721 1.1266h-1.3771c-1.7115 0-2.6754-.2615-3.8754-1.0461-.7869-.503-1.023-.5633-1.4754-.4024-.5312.1811-.5312.2012.7475.8047 1.6721.7645 3.7377 1.2473 5.4492 1.2473.964 0 1.4361.0805 1.6131.3018.8853 1.0863 4.9378 1.5692 7.082.8248 4.466-1.549 8.4-5.1099 12.413-11.2256 1.181-1.7905 1.259-2.052.374-1.368zm-1.082 1.3478c-2.518 4.0437-6.551 8.1678-9.423 9.6565-3.1082 1.6094-6.1771 1.871-8.7345.7444l-.7278-.3219 1.2787-.2817c.7082-.1408 2.0459-.5431 2.9901-.8851 1.8492-.6438 5.3315-2.2331 5.2135-2.3538-.04-.0402-.807.2414-1.6725.6236-2.6557 1.1669-7.7311 2.5952-8.0459 2.2733-.1967-.2213.7279-1.9715 1.5148-2.8365 1.5541-1.7302 2.8328-2.2532 8.1636-3.3195 4.072-.8248 7.082-1.9313 8.951-3.3194.866-.6437.905-.6437.492.0201z"/><path d="m.0663937 34.4615c-.05901661.1207-.0786888 3.9029-.05901662 8.3891l.05901662 8.1476 2.9508363-.0201c2.65575 0 3.04919-.0603 3.99346-.4828 2.4787-1.1065 3.48201-3.9431 2.30165-6.3773-.9246-1.8911-2.32133-2.5952-5.64593-2.8165l-1.92788-.1207v-5.1702h6.49183v-1.8106h-4.0328c-3.04919 0-4.07215.0604-4.1311663.2615zm6.3934663 9.1133c1.9869 1.187 2.10493 3.9632.2164 5.1501-.59017.3823-1.04263.4627-2.81313.5432l-2.1246.0604v-6.317l2.02624.0805c1.57378.0604 2.16394.1609 2.69509.4828z"/><path d="m13.9353 51.1189.8459-.0603.8263-.0604v-16.6976l-.8263-.0604-.8459-.0603z"/><path d="m19.6402 34.3408c0 .1006 1.0623 1.9313 2.3607 4.0638s2.3607 3.9229 2.3607 3.9833c0 .0402-1.141 1.9715-2.5574 4.285-1.3968 2.2934-2.5574 4.2449-2.5574 4.3052 0 .0604.4131.1207.9443.1207h.9245l2.0656-3.4401c1.1213-1.8911 2.105-3.4602 2.164-3.5005.059-.0402.7278.9858 1.4754 2.2733 2.8131 4.788 2.7148 4.6673 3.7377 4.6673.4918 0 .8853-.0603.8853-.1609 0-.0805-1.141-2.0319-2.5574-4.3656-2.3213-3.8223-2.5181-4.2448-2.282-4.627 1.3574-2.1325 4.4459-7.3631 4.4459-7.524 0-.1207-.3738-.2213-.8656-.2213h-.8459l-1.9278 3.2188c-1.0623 1.7704-1.9869 3.2188-2.046 3.2188-.059-.0201-.9639-1.4484-1.9868-3.1785l-1.8689-3.1585-.9246-.0604c-.5311-.0402-.9443.0201-.9443.1006z"/><path d="m35.3781 51.0988h9.2459v-1.8106h-7.6721v-6.4376h7.6721v-1.71h-7.5738l-.118-5.13h7.9082l-.059-.8651-.059-.8449-4.6623-.0604-4.682-.0402z"/><path d="m53.7126 36.0508c-3.1672 7.4234-6.3345 14.8871-6.3345 14.9676 0 .0603.4132.0804.9246.0402l.9246-.0604 2.6558-6.2968c1.4754-3.4401 2.7147-6.2767 2.7737-6.2767.0591 0 1.2984 2.8567 2.7542 6.3371l2.636 6.337h.8656c.8066 0 .8656-.0402.7476-.4627-.2164-.865-6.787-16.3355-6.964-16.3959-.0984-.0201-.5312.7846-.9836 1.8106z"/><path d="m13.9353 85.5h85.1808v-28.3659h-1.7705v26.5553h-81.6398v-26.5553h-1.7705z"/></g></svg>