<svg fill="none" height="20" viewBox="0 0 20 20" width="20" xmlns="http://www.w3.org/2000/svg"><path d="m9.60502 1.91249c.03651-.07378.09293-.13589.16287-.17931.06995-.04342.15063-.06643.23291-.06643.0824 0 .1631.02301.233.06643s.1264.10553.1629.17931l1.925 3.89917c.1268.25664.314.47867.5455.64704s.5004.27805.7836.31963l4.3051.63c.0815.01182.1582.04622.2212.09933.063.0531.1099.12279.1354.20117s.0286.16233.0088.24236c-.0197.08002-.0614.15293-.1205.21047l-3.1133 3.03164c-.2053.2001-.3589.4471-.4476.7197s-.1098.5627-.0616.8453l.735 4.2834c.0144.0815.0056.1654-.0254.2422s-.0829.1433-.1499.1919c-.067.0487-.1463.0775-.2289.0833-.0826.0057-.1652-.0119-.2383-.0508l-3.8483-2.0233c-.2536-.1332-.5357-.2027-.8221-.2027-.28637 0-.56848.0695-.82205.2027l-3.8475 2.0233c-.07306.0387-.1555.0561-.23796.0502-.08245-.0058-.16161-.0347-.22846-.0833s-.11872-.1151-.1497-.1917-.03983-.1604-.02555-.2418l.73417-4.2825c.0485-.2828.02749-.573-.06122-.8458-.0887-.2728-.24244-.5199-.44795-.7201l-3.11333-3.03081c-.05951-.05747-.10167-.1305-.1217-.21077-.02002-.08027-.0171-.16455.00843-.24323.02554-.07869.07266-.14863.136-.20184.06334-.05322.14035-.08758.22227-.09916l4.30417-.62916c.28354-.04125.55282-.15079.78465-.31918s.41927-.3906.54618-.64749z" fill="#fdc700"/></svg>